PathFileType	4	(X/Y/Z)	C:/Users/beibeiliu/ov580/test_trc/User2\sequence.42_training_dense_right.trc
DataRate	CameraRate	NumFrames	NumMarkers	Units	OrigDataRate	OrigDataStartFrame	OrigNumFrames
120	120	22	19	mm	120	1	200
Frame#	Time	ThumbCMC			ThumbMCP			ThumbIP			ThumbTip			IndexMCP			IndexPIP			IndexTip			MiddleMCP			MiddlePIP			MiddleTip			RingMCP			RingPIP			RingTip			PinkyMCP			PinkyPIP			PinkyTip			BackHand1			BackHand2			BackHand3	
		X0	Y0	Z0	X1	Y1	Z1	X2	Y2	Z2	X3	Y3	Z3	X4	Y4	Z4	X5	Y5	Z5	X6	Y6	Z6	X7	Y7	Z7	X8	Y8	Z8	X9	Y9	Z9	X10	Y10	Z10	X11	Y11	Z11	X12	Y12	Z12	X13	Y13	Z13	X14	Y14	Z14	X15	Y15	Z15	X16	Y16	Z16	X17	Y17	Z17	X18	Y18	Z18	
0	0	44.6251	46.2634	30.8064	7.9886	39.4195	11.781	-7.10713	30.1859	-21.3984	6.18378	21.5266	-46.8375	38.4177	84.1676	-44.9291	15.7571	68.5431	-67.4101	3.90507	40.4673	-58.0652	67.2532	83.3024	-58.6106	44.2057	82.0106	-88.4595	21.8649	48.0197	-89.4873	80.385	66.9338	-63.9092	62.4507	65.0896	-91.4002	36.8937	38.5083	-92.5472	91.2869	39.5502	-62.9274	75.8606	34.6025	-92.2954	51.6014	18.6898	-98.0562	99.3988	49.2738	-14.3899	112.819	42.2888	16.8366	81.3091	64.4828	17.3468	
1	0.00833333	37.0122	43.3146	30.478	9.98844	31.4328	12.624	-5.89108	25.0446	-23.3914	0.113903	18.1264	-49.6333	29.9803	85.4462	-36.4766	6.5998	73.8941	-61.173	-0.00767687	39.3704	-60.9356	56.9392	92.511	-44.385	35.381	99.0122	-79.0723	14.3833	74.4256	-98.1564	75.0472	79.1844	-54.5067	68.9218	81.5419	-83.425	39.1652	66.4498	-101.541	90.1706	48.466	-56.0035	83.157	50.0492	-89.275	60.338	41.1589	-106.148	93.9418	53.7771	-8.80887	108.073	44.9764	20.8249	74.169	67.3116	21.6755	
2	0.0166667	34.3994	37.1924	36.7279	9.0619	26.1795	9.22737	-6.70258	19.6063	-24.6231	1.58949	16.6538	-50.5853	22.9066	85.2007	-31.8558	1.0054	77.8422	-54.4463	-5.74601	46.3497	-66.7374	47.2205	99.0384	-40.8602	28.5031	109.351	-69.0703	9.03535	99.1061	-99.1432	73.1314	82.2831	-49.7915	64.6286	92.2526	-74.5967	45.4486	88.7614	-103.365	88.7225	55.8762	-53.8946	86.8411	57.5849	-82.6675	75.6191	57.9921	-106.077	90.4134	58.0247	-6.41727	106.397	49.0471	20.4946	71.2467	66.3755	26.1564	
3	0.025	30.2889	35.3646	33.8364	5.82148	21.0749	9.81452	-5.73543	16.3534	-28.1893	-1.20107	12.4101	-55.0267	16.7137	83.5384	-27.4565	-5.71471	74.4944	-54.918	-12.2831	50.3397	-72.9365	45.252	96.3821	-40.7578	26.5814	110.904	-67.9809	11.5032	115.589	-95.0331	67.7896	83.8178	-51.2945	62.8952	93.6464	-77.6521	50.381	100.623	-102.912	86.631	55.3639	-53.7728	86.1834	57.1199	-79.0069	83.5958	62.4895	-108.323	86.0251	61.4688	-3.44783	102.615	47.2969	23.909	62.8988	67.1012	25.9316	
4	0.0333333	28.6218	36.3069	32.2326	6.95678	20.979	7.56235	-6.35236	14.6878	-27.8866	-2.12473	10.7011	-55.9348	14.5283	83.4713	-31.7373	-6.5512	78.2186	-51.9165	-16.336	58.5259	-75.0211	42.505	93.9238	-37.5995	26.1663	110.325	-67.0038	15.2773	122.397	-89.1793	66.6052	77.5003	-51.1743	59.8123	89.9872	-79.4656	54.4006	101.226	-104.593	86.4146	50.0614	-54.9312	84.0114	53.1126	-85.0587	83.036	55.823	-109.423	87.0263	58.8774	-2.4617	105.262	48.1874	22.1822	68.3744	64.067	25.4155	
5	0.0416667	30.1176	39.1799	30.0805	9.9072	24.1515	6.09336	-4.44482	15.6924	-23.9695	-5.27659	11.1074	-52.0551	15.5171	86.4579	-29.2572	-2.11665	83.1098	-55.4879	-23.6274	70.2325	-74.5357	48.2859	94.8041	-41.4752	36.2475	110.773	-67.5874	24.4088	125.428	-89.0528	65.2949	77.2291	-57.4907	62.8483	82.3849	-82.2187	51.992	91.5294	-105.455	83.9113	45.5189	-62.2052	76.3829	43.8722	-83.4655	75.7641	43.3672	-112.418	90.6992	58.1928	-8.92236	102.769	48.7151	19.3186	68.8931	67.3626	20.9318	
6	0.05	34.1869	40.4259	29.8392	7.46166	26.3763	8.05685	-9.92199	18.4651	-25.2256	-12.4378	10.9841	-50.8333	20.3932	88.8538	-31.2784	-2.30151	89.7404	-53.2295	-15.7482	81.2914	-77.4464	49.2731	94.8783	-43.7374	38.496	108.412	-70.3081	29.8577	123.012	-95.5541	67.3531	69.5534	-63.173	59.4037	71.3	-87.4541	48.0948	75.2298	-111.661	77.4356	39.1248	-60.9334	67.1248	28.2645	-85.2179	58.9944	25.4303	-109.635	91.1205	57.3573	-6.69384	103.342	46.486	20.5302	69.9785	67.4893	20.9472	
7	0.0583333	35.2741	39.9313	33.4219	8.15942	26.8919	8.44198	-10.5573	17.9772	-21.622	-16.9699	10.7084	-48.4101	23.3425	90.5497	-32.9999	4.95995	92.8079	-58.8917	-12.4403	93.226	-81.3625	50.2197	87.5203	-52.7726	37.646	98.0844	-79.3794	30.088	109.473	-109.447	63.3382	57.3501	-68.2613	52.872	54.3707	-92.1131	37.0628	56.1413	-112.438	74.5338	30.372	-61.2389	59.3902	19.5387	-78.6963	50.3455	10.9674	-102.361	90.6205	56.3497	-13.0508	106.08	43.1483	19.3348	71.9173	66.5264	21.906	
8	0.0666667	36.9304	38.7961	26.2956	8.29211	24.0172	9.24458	-10.6014	14.6861	-17.5107	-21.8881	5.59658	-41.9939	27.856	87.2128	-38.3315	11.8349	95.4905	-59.9565	0.459682	98.9952	-81.8987	48.5898	77.1273	-58.214	31.0061	81.0015	-88.6711	19.915	83.8224	-110.773	61.1292	51.1115	-66.8788	47.7306	43.961	-89.7225	31.0716	39.4146	-115.754	74.2613	22.675	-65.0484	56.4325	12.0436	-81.5496	49.1995	0.202351	-99.4337	94.9492	49.3999	-17.0945	107.84	39.0626	12.1568	75.2787	60.7903	17.2739	
9	0.075	36.5002	35.3375	30.0066	7.92295	20.5862	8.26557	-13.8381	12.3398	-15.9301	-26.1457	4.56871	-41.3312	32.4487	83.3829	-41.8336	16.424	92.1012	-59.6578	5.10399	98.9323	-87.8556	42.7802	71.3421	-62.2971	25.2362	65.8333	-91.159	9.48535	60.8713	-112.933	61.8663	46.9042	-69.3445	46.2605	39.962	-91.0922	27.811	32.7102	-113.853	78.2654	18.6887	-67.9484	61.5731	9.22108	-85.5508	49.9406	2.22207	-105.08	91.348	45.7731	-14.4433	107.292	36.1177	9.58567	77.816	57.8189	15.1891	
10	0.0833333	38.1558	33.7743	24.5602	5.70148	21.2381	6.30392	-17.8011	11.8615	-17.1568	-27.2307	4.95231	-42.5082	32.9349	80.6039	-39.8239	15.6425	89.4635	-66.8073	9.25724	91.0543	-91.1824	46.2131	67.8519	-64.3364	29.6435	61.0665	-92.1786	8.31216	44.9049	-112.942	63.3226	46.9375	-74.446	48.4807	40.0715	-95.2495	27.0959	28.7163	-114.192	81.1862	18.5434	-69.9088	64.9112	10.3439	-88.9987	51.1282	1.24655	-111.539	93.3222	44.2261	-14.2421	109.154	35.122	12.8016	75.9103	53.9703	14.3735	
11	0.0916667	37.973	30.5118	27.5558	11.5952	20.1984	5.3162	-16.8895	13.4506	-21.7601	-28.9347	6.65103	-45.3536	29.4126	78.1141	-44.2354	15.4602	80.4838	-71.44	1.69747	76.3916	-96.6594	49.5456	70.7585	-60.9577	31.5207	62.893	-95.0527	8.90305	41.5843	-110.76	66.4398	50.1668	-74.005	51.7244	41.1544	-97.2316	25.2806	24.8341	-112.378	78.3923	23.513	-72.7043	65.0375	10.1493	-93.4809	51.0557	-0.594131	-110.499	93.9808	45.2116	-19.9512	107.77	34.7038	11.2689	71.272	56.2115	12.2514	
12	0.1	35.0609	30.6923	27.3861	10.1895	19.7468	4.56312	-13.921	12.356	-18.6275	-26.4373	7.0742	-42.9783	26.6285	75.8402	-47.4946	12.7136	70.6151	-73.0059	-2.7711	60.6486	-91.346	50.4742	74.7522	-64.0112	34.9271	63.1766	-96.6323	14.6019	39.5697	-109.02	66.7641	53.3008	-73.1924	52.2127	42.4073	-99.6706	25.728	27.0242	-109.715	81.0877	23.6908	-72.6813	64.1972	13.5002	-91.6872	46.7877	2.61259	-108.14	93.954	46.7492	-16.5916	106.456	34.0202	11.4816	73.3679	55.7539	16.1801	
13	0.108333	36.4188	30.5029	22.9259	8.14394	18.6776	2.90023	-13.0041	13.2098	-22.6194	-25.1374	6.02309	-44.7332	27.4756	70.6859	-46.7386	9.84646	62.707	-72.7372	-7.77635	42.8748	-91.7015	55.3259	74.2956	-60.3639	37.0589	71.0418	-93.245	13.8801	43.8685	-111.381	69.3974	56.6572	-73.2063	51.556	53.4397	-94.9304	32.1077	35.9593	-111.152	84.6717	26.7788	-69.3227	66.9446	17.4319	-94.7556	51.4148	11.4647	-109.328	92.7715	45.455	-13.0766	105.168	35.6644	11.2781	71.1696	56.2798	17.2582	
14	0.116667	31.8793	28.2221	22.5679	4.16836	14.4097	2.7744	-13.2361	8.92295	-26.9369	-22.3612	4.5986	-55.8556	16.0141	69.1504	-47.4283	1.46866	53.4746	-70.861	-11.7119	31.944	-83.4418	44.3758	79.6878	-57.04	31.9748	78.7695	-89.677	9.82054	59.4014	-114.355	68.6704	62.6093	-69.5787	53.1384	62.7094	-98.1499	31.9722	51.0679	-118.667	85.0069	35.7782	-67.5269	79.0874	30.6732	-94.7454	64.2743	27.5868	-119.86	91.312	47.8705	-14.9971	101.517	38.9464	14.6494	65.4908	56.3774	14.1177	
15	0.125	28.7341	27.1829	21.3077	6.27197	11.7955	-2.54798	-11.5597	4.71129	-32.0738	-16.5271	-0.192723	-58.1685	9.42654	65.424	-44.5688	-6.49036	46.9353	-66.2299	-15.2579	23.4949	-79.7743	37.7506	80.828	-58.0983	19.2114	83.3886	-87.2404	3.73819	76.8147	-113.015	62.2863	68.224	-67.6963	58.8758	69.5825	-93.918	41.4246	69.2539	-121.565	88.0564	42.3886	-66.3508	86.6511	42.406	-92.8017	82.6338	47.1166	-118.164	90.6802	50.7017	-14.193	102.25	41.9026	11.0023	64.1927	55.1149	16.7839	
16	0.133333	31.1267	24.893	20.0083	4.59154	9.96386	-5.53652	-7.00772	4.59345	-39.6009	-12.7265	-1.72105	-64.5686	5.81245	63.8791	-44.1103	-10.2154	47.1336	-63.265	-15.6353	22.4565	-83.0044	34.6488	80.968	-53.5056	17.47	86.008	-81.5756	6.07236	87.9383	-110.775	61.8839	68.1837	-63.0349	54.3943	75.3005	-92.5733	43.3524	83.5596	-117.854	88.3381	44.5952	-62.3939	87.3309	50.1095	-92.4604	89.6071	58.501	-114.954	86.8946	52.2974	-12.4483	101.496	41.7158	14.0922	63.1961	54.3912	17.1779	
17	0.141667	26.0669	26.8493	19.9602	6.03519	11.6151	-9.81087	-8.94263	2.57642	-39.1148	-11.4119	-1.66262	-64.3962	7.04175	70.1383	-44.4771	-9.71418	57.7339	-65.5696	-19.7789	38.0685	-83.6643	34.9264	85.5025	-54.9472	18.8868	95.4291	-81.3003	4.57214	105.12	-103.92	59.3272	73.7234	-63.4084	55.9474	81.2747	-91.9293	44.9629	92.2041	-111.276	83.7081	48.7387	-66.1513	85.1316	50.9892	-92.5885	91.7466	57.7946	-111.488	86.057	53.5187	-12.7831	99.9301	41.3668	16.0286	59.0352	56.2812	19.3604	
18	0.15	24.1326	29.097	24.6859	2.61871	15.2215	-8.6713	-11.746	5.036	-38.1883	-14.1161	1.14406	-66.5238	7.99619	79.9372	-37.9675	-8.9266	75.3301	-61.1808	-24.1908	61.5145	-87.2819	36.0683	91.9967	-51.9834	27.147	101.461	-76.2549	16.0404	116.421	-103.924	64.3294	70.2279	-64.0555	56.228	78.9172	-88.052	46.1956	90.395	-114.051	80.3339	44.0368	-65.6857	76.5559	44.6905	-95.0648	79.7738	46.626	-113.506	81.6861	55.2688	-12.8316	94.7899	40.6168	14.3547	62.195	59.0597	17.4702	
19	0.158333	24.0614	33.9077	21.73	4.23608	19.9201	-8.99712	-10.1965	10.1257	-36.5929	-16.1144	4.53691	-64.7917	12.5912	84.7193	-36.0428	-8.01844	86.3597	-59.5253	-25.6586	81.4799	-80.5226	43.0067	92.0087	-55.9293	30.3548	105.348	-79.409	20.8241	121.784	-103.779	60.9407	70.1811	-70.4167	51.5871	76.5127	-92.5843	42.3461	84.2752	-120.202	73.8012	40.3554	-67.6989	66.7851	35.0617	-93.4488	62.3683	39.363	-118.22	81.5034	56.5385	-16.0193	96.6744	42.6257	10.0262	64.8232	59.5836	17.4367	
20	0.166667	27.6715	36.5773	18.9674	3.84332	22.5703	-4.29249	-17.5785	14.3511	-35.1527	-18.3649	10.2824	-61.3155	18.0176	88.3814	-40.9371	-4.60616	94.1295	-58.7891	-21.6673	93.7867	-81.2421	44.448	90.5542	-53.4321	35.5929	103.288	-80.0744	23.8288	121.814	-106.687	58.5064	66.5386	-72.5131	47.7951	69.5326	-97.3083	40.67	71.2162	-121.375	70.7064	31.8353	-73.0524	58.1166	23.8678	-91.2556	49.6338	21.282	-114.766	88.4994	50.8588	-17.3519	100.653	39.6011	9.52785	61.4299	63.5532	13.5017	
21	0.175	28.0144	41.3731	19.4239	4.47586	28.946	-7.08606	-20.5406	23.2123	-32.7615	-28.4246	16.5779	-53.9495	20.6772	91.9037	-45.16	4.48343	99.0882	-60.4359	-14.348	104.258	-87.4792	48.0703	87.8766	-61.573	35.2617	101.471	-87.692	29.572	113.196	-114.442	59.2247	58.8681	-78.3577	48.1413	58.7615	-98.0739	36.3995	60.5435	-124.173	64.5278	25.4612	-75.9236	47.4543	17.0163	-90.1989	35.4078	11.5601	-109.793	86.399	50.3561	-17.6722	99.9504	36.7121	7.29398	69.7978	60.8809	11.0495	
